<svg xmlns="http://www.w3.org/2000/svg" version="1.1" xmlns:xlink="http://www.w3.org/1999/xlink" xmlns:svgjs="http://svgjs.dev/svgjs" width="2000" height="1507" viewBox="0 0 2000 1507"><g transform="matrix(1,0,0,1,-1.7542336083370174,-2.4306451612903857)"><svg viewBox="0 0 329 248" data-background-color="#000000" preserveAspectRatio="xMidYMid meet" height="1507" width="2000" xmlns="http://www.w3.org/2000/svg" xmlns:xlink="http://www.w3.org/1999/xlink"><g id="tight-bounds" transform="matrix(1,0,0,1,0.28857142857143003,0.4000000000000057)"><svg viewBox="0 0 328.42285714285714 247.2" height="247.2" width="328.42285714285714"><g><svg viewBox="0 0 328.42285714285714 247.2" height="247.2" width="328.42285714285714"><g><svg viewBox="0 0 328.42285714285714 247.2" height="247.2" width="328.42285714285714"><g id="textblocktransform"><svg viewBox="0 0 328.42285714285714 247.2" height="247.2" width="328.42285714285714" id="textblock"><g><svg viewBox="0 0 328.42285714285714 247.2" height="247.2" width="328.42285714285714"><g transform="matrix(1,0,0,1,0,0)"><svg width="328.42285714285714" viewBox="6.5 -35 46.5 35" height="247.2" data-palette-color="#ffffff"><path d="M9.9 0L6.5 0 6.5-35 21.2-35 21.2-32.55 12.9-33.7Q10.65-34 9.9-34L9.9-34 9.9-18.35Q10.7-18.35 13-18.5L13-18.5 20.65-19 20.65-16.7 13-17.2Q10.7-17.35 9.9-17.35L9.9-17.35 9.9 0ZM26.65 0L23 0 36.45-35 39.55-35 53 0 49.35 0 43.15-16.4 31.8-16.4 26.65 0ZM37.1-32.4L36.8-32.4 32.15-17.6 42.7-17.6 37.1-32.4Z" opacity="1" transform="matrix(1,0,0,1,0,0)" fill="#ffffff" class="wordmark-text-0" data-fill-palette-color="primary" id="text-0"></path></svg></g></svg></g></svg></g></svg></g><g></g></svg></g><defs></defs></svg><rect width="328.42285714285714" height="247.2" fill="none" stroke="none" visibility="hidden"></rect></g></svg></g></svg>